<?xml version="1.0" encoding="UTF-8" standalone="no"?>
<svg
   xmlns:dc="http://purl.org/dc/elements/1.1/"
   xmlns:cc="http://creativecommons.org/ns#"
   xmlns:rdf="http://www.w3.org/1999/02/22-rdf-syntax-ns#"
   xmlns:svg="http://www.w3.org/2000/svg"
   xmlns="http://www.w3.org/2000/svg"
   xmlns:sodipodi="http://sodipodi.sourceforge.net/DTD/sodipodi-0.dtd"
   xmlns:inkscape="http://www.inkscape.org/namespaces/inkscape"
   viewBox="0 0 512 512"
   version="1.1"
   id="svg4"
   sodipodi:docname="call.svg"
   inkscape:version="0.92.3 (2405546, 2018-03-11)">
  <metadata
     id="metadata10">
    <rdf:RDF>
      <cc:Work
         rdf:about="">
        <dc:format>image/svg+xml</dc:format>
        <dc:type
           rdf:resource="http://purl.org/dc/dcmitype/StillImage" />
        <dc:title></dc:title>
      </cc:Work>
    </rdf:RDF>
  </metadata>
  <defs
     id="defs8" />
  <sodipodi:namedview
     pagecolor="#ffffff"
     bordercolor="#666666"
     borderopacity="1"
     objecttolerance="10"
     gridtolerance="10"
     guidetolerance="10"
     inkscape:pageopacity="0"
     inkscape:pageshadow="2"
     inkscape:window-width="1920"
     inkscape:window-height="1018"
     id="namedview6"
     showgrid="false"
     inkscape:zoom="0.4609375"
     inkscape:cx="256"
     inkscape:cy="256"
     inkscape:window-x="-8"
     inkscape:window-y="-8"
     inkscape:window-maximized="1"
     inkscape:current-layer="svg4" />
  <path
     d="M436.9 364.8c-14.7-14.7-50-36.8-67.4-45.1-20.2-9.7-27.6-9.5-41.9.8-11.9 8.6-19.6 16.6-33.3 13.6-13.7-2.9-40.7-23.4-66.9-49.5-26.2-26.2-46.6-53.2-49.5-66.9-2.9-13.8 5.1-21.4 13.6-33.3 10.3-14.3 10.6-21.7.8-41.9C184 125 162 89.8 147.2 75.1c-14.7-14.7-18-11.5-26.1-8.6 0 0-12 4.8-23.9 12.7-14.7 9.8-22.9 18-28.7 30.3-5.7 12.3-12.3 35.2 21.3 95 27.1 48.3 53.7 84.9 93.2 124.3l.1.1.1.1c39.5 39.5 76 66.1 124.3 93.2 59.8 33.6 82.7 27 95 21.3 12.3-5.7 20.5-13.9 30.3-28.7 7.9-11.9 12.7-23.9 12.7-23.9 2.9-8.1 6.2-11.4-8.6-26.1z"
     id="path2" />
  <path
     style="stroke-width:2.16949153;fill:#decd87"
     d="M 349.6666,440.28668 C 329.10011,433.12725 302.45534,419.091 271.89785,399.3188 212.10758,360.63152 153.79387,302.90295 115.7772,244.76471 76.391391,184.53266 60.117292,143.32132 66.416821,119.76809 71.777359,99.725642 85.639298,85.62547 113.94491,71.423174 c 7.4236,-3.72478 15.05338,-6.772327 16.95505,-6.772327 9.49664,0 44.14849,45.031593 59.96736,77.930183 9.76285,20.30386 9.27856,26.99403 -3.27164,45.19629 -11.96919,17.35958 -13.41443,26.81426 -6.24653,40.8645 15.57657,30.5326 73.96043,88.32549 104.18722,103.13262 12.66605,6.20472 21.61304,4.43138 39.35282,-7.79995 10.28829,-7.09363 16.38395,-9.83212 21.88561,-9.83212 22.4734,0 99.70656,51.98434 99.70656,67.11079 0,15.51402 -27.6339,53.53987 -44.46475,61.18606 -13.03774,5.92302 -31.31017,5.17168 -52.35001,-2.15254 z"
     id="path3722"
     inkscape:connector-curvature="0" />
  <path
     style="fill:#cca464;stroke-width:0;stroke:#cca464;fill-opacity:1;stroke-opacity:1;stroke-miterlimit:4;stroke-dasharray:none"
     d="M 353.19322,440.13998 C 335.02011,434.14144 322.02897,428.01221 299.18896,414.66069 220.01761,368.37975 153.85329,304.43125 107.46189,229.35453 52.785414,140.86977 53.449058,105.80792 110.39034,74.638238 c 7.85502,-4.299844 16.80744,-7.817899 19.89426,-7.817899 10.32521,0 42.01852,40.745001 59.06351,75.932201 9.45476,19.51813 9.15761,25.40127 -2.21344,43.82383 -10.10495,16.37131 -12.34556,24.34257 -9.65302,34.34189 6.7145,24.93577 72.14648,93.22481 105.65904,110.27263 13.7572,6.99826 21.29696,6.03535 39.7786,-5.08015 19.12211,-11.50071 26.76181,-12.25684 44.51443,-4.40578 17.32996,7.66412 52.90991,31.4527 66.19435,44.25719 10.67915,10.29333 11.22176,11.34408 10.11589,19.58901 -2.17099,16.18584 -29.33049,51.04936 -44.16133,56.68804 -8.69261,3.30491 -33.40502,2.18663 -46.38941,-2.09922 z"
     id="path3724"
     inkscape:connector-curvature="0" />
  <path
     style="fill:#cca464;fill-opacity:1;stroke:#cca464;stroke-width:0;stroke-miterlimit:4;stroke-dasharray:none;stroke-opacity:1"
     d="m 372.53786,443.42929 c -0.49718,-0.4854 -4.80905,-1.18933 -9.58193,-1.56429 -4.77288,-0.37493 -11.11864,-1.92431 -14.10169,-3.44304 -2.98305,-1.51874 -6.4,-2.78561 -7.59322,-2.81527 -2.20677,-0.0549 -29.86101,-13.47462 -35.79661,-17.37096 -1.78983,-1.17494 -12.01335,-7.60121 -22.71892,-14.28064 C 200.042,352.35467 128.30058,274.56907 86.859748,191.5661 72.542943,162.89058 68.181344,148.94828 68.195868,131.90508 c 0.02101,-24.65254 14.556296,-43.063894 45.818562,-58.036827 14.73619,-7.057836 16.06139,-7.324019 20.84814,-4.187616 21.31944,13.969034 59.95777,74.284013 59.95777,93.594923 0,5.11789 -3.18476,14.40107 -8.67797,25.29519 -11.23157,22.27443 -11.2849,29.35504 -0.35716,47.42757 14.55691,24.07455 60.71707,70.86552 88.00811,89.2108 19.05239,12.80721 24.49823,13.02387 46.66609,1.85672 23.29917,-11.73704 32.49547,-12.20443 51.32763,-2.60871 20.39988,10.39454 50.79676,31.60064 62.59053,43.66571 l 10.67587,10.92148 -2.73061,9.11399 c -5.87615,19.61283 -31.58179,50.08733 -45.51367,53.95731 -7.82979,2.17496 -22.57192,2.97286 -24.2713,1.31367 z"
     id="path4539"
     inkscape:connector-curvature="0" />
  <path
     style="fill:#cca464;fill-opacity:1;stroke:#cca464;stroke-width:0;stroke-miterlimit:4;stroke-dasharray:none;stroke-opacity:1"
     d="m 360.67888,442.16164 c -6.02527,-0.88489 -12.85916,-2.57794 -15.18644,-3.76229 -2.32728,-1.18437 -11.70662,-5.65508 -20.84296,-9.93493 C 305.954,419.70671 265.3617,393.90848 240.58102,375.03518 184.93754,332.65634 137.01808,278.80202 101.40974,218.62744 61.22264,150.71519 57.588931,118.42338 87.075582,91.243531 99.023156,80.230642 126.20639,66.096389 131.93948,67.916001 c 11.95602,3.794692 43.39863,45.015849 57.59503,75.506879 7.42318,15.94352 6.7894,24.4298 -3.39214,45.42036 -9.63418,19.86211 -10.44858,26.83265 -4.62716,39.60422 9.84935,21.60842 62.12025,76.28509 91.78487,96.00924 19.61636,13.04303 26.58108,13.25629 49.50705,1.51593 21.0187,-10.76367 30.56299,-10.99034 49.85686,-1.18408 18.84069,9.57589 48.72802,30.23498 61.64266,42.60939 9.60674,9.20487 10.40004,10.72508 9.26069,17.74608 -2.66737,16.43713 -28.67721,49.76394 -43.75487,56.0638 -7.86087,3.28448 -21.07182,3.60648 -39.13359,0.95382 z"
     id="path4541"
     inkscape:connector-curvature="0" />
  <path
     style="fill:#cca464;fill-opacity:1;stroke:#cca464;stroke-width:0;stroke-miterlimit:4;stroke-dasharray:none;stroke-opacity:1"
     d="M 358.92237,442.14075 C 337.13775,438.26417 286.76738,409.78721 240.86251,375.39541 196.87107,342.43714 155.74981,299.51314 121.90907,251.22712 109.70578,233.81472 104.58115,225.70761 94.481679,207.83729 92.121444,203.66102 87.961845,196.33898 85.238122,191.5661 75.824202,175.06973 68.279157,149.2212 68.14003,132.98983 67.980062,114.32708 72.739324,104.19592 88.193703,90.301106 98.699483,80.855509 123.83109,66.820339 130.23875,66.820339 c 9.51419,0 39.92225,37.635561 56.04901,69.370951 10.6827,21.02217 10.80664,30.41791 0.67592,51.24116 -11.85265,24.36259 -11.56067,32.72173 1.82228,52.1715 20.22533,29.39397 65.98476,74.25025 89.5598,87.79217 14.84093,8.52487 24.5637,8.23068 43.51421,-1.31662 19.38289,-9.76512 26.62394,-11.04091 38.9084,-6.85518 23.32594,7.94795 80.0098,48.38827 82.66767,58.9781 1.97947,7.88676 -3.83165,21.3923 -16.38658,38.08395 -15.45038,20.54114 -25.23422,26.71692 -43.21814,27.28027 -7.90181,0.24754 -19.11083,-0.39413 -24.90895,-1.42589 z"
     id="path4543"
     inkscape:connector-curvature="0" />
  <path
     style="fill:#cca464;fill-opacity:1;stroke:#cca464;stroke-width:0;stroke-miterlimit:4;stroke-dasharray:none;stroke-opacity:1"
     d="M 348.52363,439.0746 C 317.216,428.13486 257.83951,391.36853 218.27347,358.42278 144.1881,296.73357 66.820339,181.71713 66.820339,133.26955 c 0,-21.17221 13.56633,-40.612044 38.805651,-55.606452 20.45116,-12.149809 25.40493,-12.706336 35.82381,-4.024598 10.70575,8.920784 30.77928,35.90731 42.49205,57.12563 13.07637,23.68854 13.8416,34.96673 3.80629,56.09824 -11.53105,24.28111 -11.85134,27.69479 -4.07104,43.38841 12.5451,25.30465 69.58484,83.18575 96.03438,97.45091 14.6686,7.91129 22.01726,7.53476 42.34131,-2.16949 28.53813,-13.62627 42.79427,-10.42846 83.81751,18.80127 27.86545,19.8546 38.4494,29.973 38.39392,36.70515 -0.11042,13.39987 -21.57145,45.83409 -37.15759,56.1566 -12.68539,8.40135 -37.62825,9.20155 -58.583,1.87938 z"
     id="path4545"
     inkscape:connector-curvature="0" />
  <path
     style="fill:#cca464;fill-opacity:1;stroke:#cca464;stroke-width:0;stroke-miterlimit:4;stroke-dasharray:none;stroke-opacity:1"
     d="M 350.69468,440.15698 C 322.58408,431.16633 264.96985,396.39919 226.27797,365.07806 202.00542,345.42943 159.1662,301.72052 140.20824,277.26102 107.77702,235.41838 77.27897,182.07141 70.181823,154.77131 63.009487,127.18199 66.651346,112.40336 85.240216,93.664447 98.344569,80.454324 120.93674,66.820339 129.7222,66.820339 c 10.13861,0 39.64756,35.661641 56.57212,68.367531 10.89915,21.06209 11.25074,31.15065 1.77577,50.9545 -9.53583,19.93109 -10.89244,25.59004 -8.37547,34.93739 5.54563,20.59489 61.96159,82.03652 94.66215,103.09486 17.5026,11.27125 25.02297,11.53256 46.58184,1.61853 24.72218,-11.36872 33.96671,-11.21989 57.20376,0.92084 31.58277,16.50117 66.18485,45.05216 66.1483,54.58055 -0.0588,15.32982 -25.08752,50.35372 -41.74683,58.41835 -12.00879,5.81337 -34.46014,6.00565 -51.84916,0.44409 z"
     id="path4547"
     inkscape:connector-curvature="0" />
  <path
     style="fill:#cca464;fill-opacity:1;stroke:#cca464;stroke-width:0;stroke-miterlimit:4;stroke-dasharray:none;stroke-opacity:1"
     d="M 350.69468,440.15698 C 334.62587,435.01768 297.25429,415.14223 270.54295,397.5296 212.15376,359.02961 155.30809,302.7646 117.25089,245.80339 76.025299,184.09995 61.255991,143.99079 69.411548,115.8856 74.430997,98.587876 113.43105,66.820339 129.6475,66.820339 c 10.21042,0 39.66224,35.545651 56.64682,68.367531 11.13379,21.51552 11.24551,30.28364 0.68387,53.67531 -10.60501,23.48774 -9.83707,32.40043 4.56112,52.93626 14.28995,20.38145 68.54072,73.7298 84.5976,83.19039 16.59657,9.77857 25.20624,9.7684 46.68343,-0.0551 27.54666,-12.59974 41.31139,-9.57306 82.44068,18.12762 24.1541,16.26786 39.05084,31.03492 39.05084,38.71091 0,15.64164 -25.43242,50.83654 -42.25883,58.48025 -11.38835,5.17339 -35.02023,5.12902 -51.35835,-0.0965 z"
     id="path4549"
     inkscape:connector-curvature="0" />
  <path
     style="fill:#cca464;fill-opacity:1;stroke:#cca464;stroke-width:0;stroke-miterlimit:4;stroke-dasharray:none;stroke-opacity:1"
     d="M 350.69468,440.15698 C 322.44693,431.12246 266.69732,397.69639 228.44746,366.86063 200.57844,344.39352 154.67957,297.23323 134.60263,270.43666 118.32034,248.70478 94.871263,211.45369 83.989564,190.03299 67.257511,157.09583 62.723723,128.72054 71.346918,110.90739 79.652346,93.750669 115.26493,66.820339 129.6475,66.820339 c 10.21042,0 39.66224,35.545651 56.64682,68.367531 11.03296,21.32067 11.18625,30.09942 0.9328,53.41999 -9.29697,21.14513 -9.55711,29.84132 -1.32154,44.17858 17.69293,30.80152 82.72496,92.75739 103.33658,98.44853 9.19179,2.53796 21.56898,-0.10956 36.45837,-7.79852 22.05703,-11.39039 38.76148,-7.47472 77.78365,18.23319 23.97661,15.79587 40.82768,32.34545 40.82768,40.09722 0,15.86449 -25.16644,50.72299 -42.20878,58.46415 -11.43992,5.19639 -35.03594,5.16241 -51.4084,-0.074 z"
     id="path4551"
     inkscape:connector-curvature="0" />
  <path
     style="fill:#cca464;fill-opacity:1;stroke:#cca464;stroke-width:10;stroke-miterlimit:4;stroke-dasharray:none;stroke-opacity:1;stroke-linecap:butt;stroke-linejoin:round"
     d="M 351.02373,440.24546 C 321.907,430.89208 267.07664,398.06232 228.44746,366.85271 202.24354,345.68183 157.6769,300.43611 137.84256,274.86724 122.03291,254.48669 95.228464,212.41014 84.490765,191.11774 69.625157,161.63986 64.260199,136.99143 68.238091,116.44746 71.214454,101.07593 113.61171,66.820339 129.66029,66.820339 c 10.76195,0 45.00476,42.490501 59.72427,74.109401 7.41676,15.9319 6.95341,26.30917 -2.15744,48.31866 -8.61365,20.80837 -9.15443,26.87417 -3.5048,39.31229 8.92544,19.65005 56.59128,69.98477 86.76288,91.62087 18.9164,13.56499 29.89368,14.56181 51.25039,4.65395 20.76028,-9.63113 34.16526,-9.76262 52.57049,-0.5156 19.4851,9.78953 42.42786,25.50331 57.18852,39.16904 15.08657,13.96754 16.0827,19.1808 7.10673,37.19325 -7.0407,14.12883 -27.6654,36.78119 -37.06724,40.71137 -9.70895,4.05858 -36.17484,3.457 -50.51036,-1.14811 z"
     id="path4553"
     inkscape:connector-curvature="0" />
</svg>
